# xmcd
#
# Track frame offsets:
#	150
#	12408
#	25295
#	38956
#	56365
#	70775
#	82304
#	93420
#	107411
#	120706
#	134524
#	146526
#
# Disc length: 2156 seconds
#
# Revision: 0
# Processed by: cddbd v1.5.2PL0 Copyright (c) Steve Scherf et al.
# Submitted via: EasyCDDAExtractor 16.0.6.1
#
DISCID=a4086a0c
DTITLE=Τοπάλης Μανώλης - Λαϊκές στιγμές-LP, Μ. Τοπάλης
DYEAR=1980
DGENRE=Λαϊκή
TTITLE0=Τοπάλης Μανώλης-Γκίκα Βούλα - Είναι κάτι στιγμές [Τ. Κωλλέτης]
TTITLE1=Τοπάλης Μανώλης-Γκίκα Βούλα - Καλώς τον φίλο μου [Γ. Σκρήνη]
TTITLE2=Τοπάλης Μανώλης-Γκίκα Βούλα - Άσ' τις πίκρες παλληκάρι [Α. Ρόκα]
TTITLE3=Τοπάλης Μανώλης - Απόψε θα ξημερωθώ [Ε. Ζολωτάκης]
TTITLE4=Τοπάλης Μανώλης-Γκίκα Βούλα - Μιά καρδιά σαν την δική μου [Γ. Σκρήνη]
TTITLE5=Τοπάλης Μανώλης-Γκίκα Βούλα - Ο γκαζιέρης [Γ. Σκρήνη]
TTITLE6=Τοπάλης Μανώλης - Γυναίκα πονηρή [Ν. Καρανικόλα]
TTITLE7=Τοπάλης Μανώλης-Γκίκα Βούλα - Εγώ είμαι ένας απόκληρος [Ν. Καρανικόλα]
TTITLE8=Τοπάλης Μανώλης - Σα δε ντρέπεσαι [Κ. Σιμόπουλου]
TTITLE9=Τοπάλης Μανώλης-Γκίκα Βούλα - Ποιός καϋμός [Ν. Καρανικόλα]
TTITLE10=Τοπάλης Μανώλης-Γκίκα Βούλα - Έλα φίλα με [Γ. Λευκαδίτη]
TTITLE11=Τοπάλης Μανώλης-Γκίκα Βούλα - Ένα βασάνι [Τ. Κωλλέτης]
EXTD=
EXTT0=
EXTT1=
EXTT2=
EXTT3=
EXTT4=
EXTT5=
EXTT6=
EXTT7=
EXTT8=
EXTT9=
EXTT10=
EXTT11=
PLAYORDER=
